<svg width="1024" height="1024" xmlns="http://www.w3.org/2000/svg" class="icon">
 <g>
  <title>Layer 1</title>
  <path fill="#8E8E8E" opacity="NaN" d="m615.03237,516.88942c-10.80258,-15.04061 -24.01876,-27.21756 -37.27553,-35.7358c-15.46857,8.73125 -34.30845,14.04794 -54.84758,14.04794c-20.57946,0 -39.44644,-5.32705 -54.88774,-14.04794c-13.25674,8.51825 -26.48643,20.69519 -37.31552,35.7358c-25.1381,34.91999 -27.90268,70.73899 -6.1904,80.02638c9.72367,4.18367 19.9188,1.0654 30.45153,-6.75646c-1.84758,7.93088 -2.92654,16.52693 -2.92654,25.51815c0,39.94571 20.13475,72.30341 44.94863,72.30341c14.95616,0 22.35991,-11.78216 25.92003,-29.82155c3.54699,18.03939 10.95068,29.82155 25.85264,29.82155c24.85466,0 44.9896,-32.35769 44.9896,-72.30341c0,-8.99124 -1.07931,-17.58727 -2.96705,-25.51815c10.55945,7.82187 20.74117,10.94014 30.49184,6.75646c21.69891,-9.28739 18.89351,-45.1064 -6.24389,-80.02638l-0.00002,0zm-92.14966,-35.31487c41.75229,0 75.61558,-26.10021 75.61558,-58.29677s-33.86329,-58.29684 -75.61558,-58.29684c-41.76649,0 -75.65653,26.1054 -75.65653,58.29684s33.89003,58.29677 75.65653,58.29677z" id="svg_1" stroke="null"/>
  <path stroke="null" fill="#386bf3" d="m632.47888,323.62049l-95.1317,-21.5731l35.04854,-23.43336c19.27661,-12.88857 36.75471,-25.36554 38.8401,-27.72662c5.1802,-5.8648 -59.33141,-133.50971 -67.42215,-133.40405c-3.55658,0.05163 -28.33941,49.47821 -55.07288,109.84861c-26.92692,60.80636 -53.72521,107.11505 -60.08322,103.82501c-75.25097,-38.93503 -136.65008,-78.32872 -136.65008,-87.6745c0,-6.38364 23.61059,-63.32866 52.46828,-126.54459l52.46831,-114.93786l143.05664,0l143.05664,0l37.34175,75.62092l37.34206,75.62092l38.95595,-25.59019c27.0051,-17.73996 37.28791,-20.2873 33.51806,-8.30496c-33.1917,105.51225 -82.71896,228.54139 -91.52266,227.34795c-6.09512,-0.82563 -53.89114,-11.20917 -106.21361,-23.07415l-0.00003,-0.00004l0,0.00001zm-443.68101,470.73524c-36.20308,-79.82815 -68.64944,-154.57023 -72.1027,-166.09399c-3.54402,-11.82505 6.78154,-54.07988 23.705,-97.00617l29.98383,-76.05525l-30.65097,-23.1837c-40.79012,-30.85239 -25.62812,-40.3547 82.5765,-51.75244l85.51696,-9.00772l33.54375,113.48534c18.44933,62.41689 35.90451,121.54612 38.7897,131.39904c3.00894,10.27549 -11.3915,3.43867 -33.77174,-16.03387l-39.01735,-33.9484l-27.23711,67.32225c-14.98014,37.02786 -27.4495,71.44886 -27.70925,76.49113c-0.26036,5.04226 45.71636,10.8124 102.16967,12.82211l102.64212,3.65389l6.69842,96.13672c3.68429,52.8755 5.93717,96.84344 5.00691,97.70667c-0.9302,0.86237 -49.53268,5.53761 -108.00538,10.38825l-106.31418,8.81902l-65.82418,-145.143l0,0.00011l0,0.00001zm405.16702,141.04765c-62.15088,-120.11245 -63.23116,-111.17823 29.14463,-241.01056l59.29899,-83.3436l-6.29807,60.90494l-6.29835,60.90497l66.45123,0c36.5481,0 66.45157,-3.74243 66.45157,-8.31593c0,-4.57425 -20.2783,-55.94874 -45.06268,-114.16699c-24.78438,-58.21825 -44.96857,-110.73296 -44.85396,-116.69943c0.25733,-13.37852 130.17378,-123.85172 136.35001,-115.94356c2.44722,3.13354 26.55706,58.94296 53.5775,124.02225l49.12871,118.32422l-66.10404,136.52808c-36.35776,75.08952 -71.28952,143.8517 -77.62575,152.80391c-6.33696,8.95221 -41.76958,19.89373 -78.73947,24.31371c-70.56644,8.43793 -68.64545,6.40559 -78.9921,83.56275c-1.81064,13.50297 -22.92451,-17.13574 -56.42821,-81.88482l0,0.00007l-0.00001,-0.00001z" id="svg_7"/>
 </g>

</svg>